<svg xmlns="http://www.w3.org/2000/svg" width="1920" height="800" viewBox="0 0 1920 800">
  <defs>
    <linearGradient id="heroBg" x1="0%" y1="0%" x2="100%" y2="100%">
      <stop offset="0%" style="stop-color:#3d2f28"/>
      <stop offset="50%" style="stop-color:#5a4235"/>
      <stop offset="100%" style="stop-color:#8b7355"/>
    </linearGradient>
    <linearGradient id="shoeGrad" x1="0%" y1="0%" x2="100%" y2="100%">
      <stop offset="0%" style="stop-color:#d4c4b0;stop-opacity:0.15"/>
      <stop offset="100%" style="stop-color:#8b7355;stop-opacity:0.1"/>
    </linearGradient>
  </defs>
  <rect width="1920" height="800" fill="url(#heroBg)"/>
  <!-- Decorative shoe outlines -->
  <g transform="translate(1300,350) scale(2.5)" opacity="0.12">
    <path d="M-80 20 C-80 20 -75-30 -40-45 C-10-58 30-55 60-40 C90-25 110-5 120 15 C125 25 130 35 125 42 L-85 42 C-90 42 -85 30 -80 20Z" fill="url(#shoeGrad)" stroke="#d4c4b0" stroke-width="1"/>
    <path d="M-85 42 L125 42 L130 55 C130 60 125 65 120 65 L-90 65 C-95 65 -95 60 -90 55 Z" fill="#d4c4b0" opacity="0.15"/>
  </g>
  <g transform="translate(1500,300) scale(1.8) rotate(-15)" opacity="0.08">
    <path d="M-80 20 C-80 20 -75-30 -40-45 C-10-58 30-55 60-40 C90-25 110-5 120 15 C125 25 130 35 125 42 L-85 42 C-90 42 -85 30 -80 20Z" fill="#d4c4b0" stroke="#d4c4b0" stroke-width="1"/>
  </g>
  <!-- subtle texture dots -->
  <g opacity="0.04" fill="#fff">
    <circle cx="100" cy="100" r="2"/><circle cx="300" cy="200" r="1.5"/><circle cx="500" cy="150" r="2"/>
    <circle cx="700" cy="300" r="1.5"/><circle cx="900" cy="100" r="2"/><circle cx="1100" cy="250" r="1.5"/>
    <circle cx="1300" cy="180" r="2"/><circle cx="1500" cy="350" r="1.5"/><circle cx="1700" cy="200" r="2"/>
    <circle cx="200" cy="400" r="1.5"/><circle cx="400" cy="500" r="2"/><circle cx="600" cy="450" r="1.5"/>
    <circle cx="800" cy="550" r="2"/><circle cx="1000" cy="400" r="1.5"/><circle cx="1200" cy="600" r="2"/>
  </g>
</svg>
