<svg xmlns="http://www.w3.org/2000/svg" width="600" height="600" viewBox="0 0 600 600">
  <rect width="600" height="600" fill="#f5f0eb"/>
  <g transform="translate(300,280)" opacity="0.35">
    <!-- Shoe silhouette -->
    <path d="M-80 20 C-80 20 -75-30 -40-45 C-10-58 30-55 60-40 C90-25 110-5 120 15 C125 25 130 35 125 42 L-85 42 C-90 42 -85 30 -80 20Z" fill="#a89279" stroke="#8b7355" stroke-width="1.5"/>
    <path d="M-85 42 L125 42 L130 55 C130 60 125 65 120 65 L-90 65 C-95 65 -95 60 -90 55 Z" fill="#8b7355"/>
    <ellipse cx="-55" cy="-15" rx="8" ry="5" fill="#c4b49a" opacity="0.5"/>
  </g>
  <text x="300" y="380" text-anchor="middle" font-family="'Inter', sans-serif" font-size="15" fill="#a89279" letter-spacing="2">NO IMAGE AVAILABLE</text>
</svg>
